<svg width="400" height="56" viewBox="0 0 400 56" fill="none" xmlns="http://www.w3.org/2000/svg">
<path d="M15.6761 55H0.761364V4.09091H16.571C21.4266 4.09091 25.5779 5.1018 29.0249 7.12358C32.4884 9.14536 35.1399 12.0455 36.9794 15.8239C38.8189 19.6023 39.7386 24.1347 39.7386 29.4212C39.7386 34.7573 38.794 39.3395 36.9048 43.1676C35.0322 46.9792 32.2978 49.9041 28.7017 51.9425C25.1222 53.9808 20.7803 55 15.6761 55ZM5.4098 50.8239H15.4027C19.7777 50.8239 23.4401 49.9621 26.3899 48.2386C29.3397 46.5152 31.5521 44.0542 33.027 40.8558C34.5019 37.6574 35.2393 33.8459 35.2393 29.4212C35.2228 25.0296 34.4936 21.2512 33.0518 18.0859C31.6267 14.9207 29.5054 12.4929 26.6882 10.8026C23.8875 9.11221 20.424 8.26704 16.2976 8.26704H5.4098V50.8239ZM50.1355 55V16.8182H54.5851V55H50.1355ZM52.3975 10.2557C51.4861 10.2557 50.7072 9.9491 50.0609 9.33594C49.4146 8.7062 49.0914 7.95218 49.0914 7.07386C49.0914 6.19555 49.4146 5.44981 50.0609 4.83665C50.7072 4.20691 51.4861 3.89204 52.3975 3.89204C53.309 3.89204 54.0879 4.20691 54.7342 4.83665C55.3805 5.44981 55.7037 6.19555 55.7037 7.07386C55.7037 7.95218 55.3805 8.7062 54.7342 9.33594C54.0879 9.9491 53.309 10.2557 52.3975 10.2557ZM76.951 55.87C74.6475 55.87 72.5429 55.4226 70.6371 54.5277C68.7313 53.6162 67.215 52.3071 66.0881 50.6001C64.9612 48.8767 64.3977 46.7886 64.3977 44.3359C64.3977 42.4467 64.754 40.8558 65.4666 39.5632C66.1792 38.2706 67.1901 37.21 68.4993 36.3814C69.8085 35.5528 71.358 34.8982 73.1477 34.4176C74.9375 33.937 76.9096 33.5642 79.0639 33.299C81.2017 33.0339 83.0081 32.8018 84.483 32.603C85.9744 32.4041 87.1096 32.0893 87.8885 31.6584C88.6674 31.2275 89.0568 30.5315 89.0568 29.5703V28.6754C89.0568 26.0736 88.2779 24.027 86.7202 22.5355C85.179 21.0275 82.9583 20.2734 80.0582 20.2734C77.3073 20.2734 75.0618 20.8783 73.3217 22.0881C71.5982 23.2978 70.3885 24.723 69.6925 26.3636L65.4915 24.8473C66.3532 22.7592 67.5464 21.0937 69.071 19.8509C70.5956 18.5914 72.3026 17.6882 74.1918 17.1413C76.081 16.5779 77.995 16.2962 79.9339 16.2962C81.3923 16.2962 82.9086 16.4867 84.483 16.8679C86.0739 17.2491 87.5488 17.9119 88.9077 18.8565C90.2666 19.7846 91.3686 21.0855 92.2138 22.7592C93.0589 24.4164 93.4815 26.5211 93.4815 29.0732V55H89.0568V48.9595H88.7834C88.2531 50.0864 87.4659 51.1802 86.4219 52.2408C85.3778 53.3014 84.0687 54.1714 82.4943 54.8509C80.92 55.5303 79.0722 55.87 76.951 55.87ZM77.5476 51.8182C79.9008 51.8182 81.9392 51.2962 83.6626 50.2521C85.3861 49.2081 86.7119 47.8243 87.6399 46.1009C88.5845 44.3608 89.0568 42.4467 89.0568 40.3587V34.8402C88.7254 35.1551 88.1702 35.4368 87.3913 35.6854C86.629 35.9339 85.7424 36.1577 84.7315 36.3565C83.7372 36.5388 82.7429 36.6963 81.7486 36.8288C80.7543 36.9614 79.8594 37.0774 79.0639 37.1768C76.9096 37.442 75.0701 37.8563 73.5455 38.4197C72.0208 38.9832 70.8525 39.7621 70.0405 40.7564C69.2285 41.7341 68.8224 42.9936 68.8224 44.5348C68.8224 46.8549 69.651 48.6529 71.3082 49.929C72.9654 51.1884 75.0452 51.8182 77.5476 51.8182ZM78.2685 11.5234L84.6321 0.237924H89.8771L82.2457 11.5234H78.2685ZM105.252 55V16.8182H109.552V22.6847H109.875C110.638 20.7623 111.963 19.2128 113.853 18.0362C115.758 16.843 117.913 16.2464 120.316 16.2464C120.68 16.2464 121.086 16.2547 121.534 16.2713C121.981 16.2879 122.354 16.3045 122.652 16.321V20.8203C122.453 20.7872 122.105 20.7375 121.608 20.6712C121.111 20.6049 120.573 20.5717 119.993 20.5717C118.004 20.5717 116.231 20.9943 114.673 21.8395C113.132 22.6681 111.914 23.8198 111.019 25.2947C110.124 26.7696 109.676 28.4517 109.676 30.3409V55H105.252ZM130.253 55V16.8182H134.702V55H130.253ZM132.515 10.2557C131.603 10.2557 130.824 9.9491 130.178 9.33594C129.532 8.7062 129.209 7.95218 129.209 7.07386C129.209 6.19555 129.532 5.44981 130.178 4.83665C130.824 4.20691 131.603 3.89204 132.515 3.89204C133.426 3.89204 134.205 4.20691 134.851 4.83665C135.498 5.44981 135.821 6.19555 135.821 7.07386C135.821 7.95218 135.498 8.7062 134.851 9.33594C134.205 9.9491 133.426 10.2557 132.515 10.2557ZM161.244 55.7955C157.946 55.7955 155.03 54.9586 152.494 53.2848C149.975 51.611 148.003 49.2992 146.578 46.3494C145.153 43.383 144.44 39.9609 144.44 36.0831C144.44 32.1721 145.153 28.7334 146.578 25.767C148.003 22.7841 149.975 20.464 152.494 18.8068C155.03 17.133 157.946 16.2962 161.244 16.2962C164.542 16.2962 167.451 17.133 169.969 18.8068C172.488 20.4806 174.46 22.8007 175.886 25.767C177.327 28.7334 178.048 32.1721 178.048 36.0831C178.048 39.9609 177.336 43.383 175.911 46.3494C174.485 49.2992 172.505 51.611 169.969 53.2848C167.451 54.9586 164.542 55.7955 161.244 55.7955ZM161.244 51.7436C163.896 51.7436 166.141 51.031 167.981 49.6058C169.82 48.1806 171.212 46.2831 172.157 43.9134C173.118 41.5436 173.599 38.9335 173.599 36.0831C173.599 33.2327 173.118 30.6143 172.157 28.228C171.212 25.8416 169.82 23.9276 167.981 22.4858C166.141 21.044 163.896 20.3232 161.244 20.3232C158.609 20.3232 156.364 21.044 154.508 22.4858C152.668 23.9276 151.268 25.8416 150.307 28.228C149.362 30.6143 148.89 33.2327 148.89 36.0831C148.89 38.9335 149.362 41.5436 150.307 43.9134C151.268 46.2831 152.668 48.1806 154.508 49.6058C156.347 51.031 158.593 51.7436 161.244 51.7436ZM250.105 29.5455C250.105 34.8485 249.161 39.4638 247.271 43.3913C245.382 47.3023 242.78 50.335 239.466 52.4893C236.168 54.6271 232.373 55.696 228.081 55.696C223.789 55.696 219.986 54.6271 216.671 52.4893C213.374 50.335 210.78 47.3023 208.891 43.3913C207.018 39.4638 206.082 34.8485 206.082 29.5455C206.082 24.2424 207.018 19.6354 208.891 15.7244C210.78 11.7969 213.382 8.7642 216.696 6.62642C220.011 4.47206 223.806 3.39488 228.081 3.39488C232.373 3.39488 236.168 4.47206 239.466 6.62642C242.78 8.7642 245.382 11.7969 247.271 15.7244C249.161 19.6354 250.105 24.2424 250.105 29.5455ZM245.581 29.5455C245.581 24.9882 244.819 21.0855 243.294 17.8374C241.77 14.5727 239.69 12.0786 237.055 10.3551C234.42 8.63163 231.429 7.76988 228.081 7.76988C224.75 7.76988 221.767 8.63163 219.132 10.3551C216.497 12.0786 214.409 14.5644 212.868 17.8125C211.343 21.0606 210.581 24.9716 210.581 29.5455C210.581 34.1027 211.343 38.0054 212.868 41.2536C214.393 44.5017 216.472 46.9957 219.107 48.7358C221.742 50.4593 224.734 51.321 228.081 51.321C231.429 51.321 234.42 50.4593 237.055 48.7358C239.706 47.0123 241.794 44.5265 243.319 41.2784C244.844 38.0137 245.598 34.1027 245.581 29.5455ZM276.138 16.8182V20.6712H257.37V16.8182H276.138ZM263.237 55V11.2251C263.237 9.17022 263.709 7.43844 264.653 6.02983C265.615 4.62121 266.866 3.55232 268.407 2.82315C269.948 2.09398 271.58 1.7294 273.304 1.7294C274.464 1.7294 275.425 1.82883 276.188 2.0277C276.966 2.20999 277.58 2.39228 278.027 2.57457L276.734 6.45241C276.403 6.35298 275.997 6.23698 275.516 6.1044C275.036 5.97183 274.431 5.90554 273.702 5.90554C271.779 5.90554 270.296 6.44413 269.252 7.52131C268.208 8.59848 267.686 10.1397 267.686 12.1449L267.661 55H263.237ZM285.018 55V16.8182H289.468V55H285.018ZM287.28 10.2557C286.369 10.2557 285.59 9.9491 284.944 9.33594C284.297 8.7062 283.974 7.95218 283.974 7.07386C283.974 6.19555 284.297 5.44981 284.944 4.83665C285.59 4.20691 286.369 3.89204 287.28 3.89204C288.192 3.89204 288.971 4.20691 289.617 4.83665C290.263 5.44981 290.586 6.19555 290.586 7.07386C290.586 7.95218 290.263 8.7062 289.617 9.33594C288.971 9.9491 288.192 10.2557 287.28 10.2557ZM316.085 55.7955C312.671 55.7955 309.696 54.942 307.161 53.2351C304.642 51.5282 302.686 49.1915 301.294 46.2251C299.902 43.2588 299.206 39.8781 299.206 36.0831C299.206 32.255 299.91 28.8494 301.319 25.8665C302.744 22.8835 304.716 20.5469 307.235 18.8565C309.754 17.1496 312.679 16.2962 316.01 16.2962C318.562 16.2962 320.874 16.7933 322.945 17.7876C325.017 18.7654 326.724 20.1491 328.066 21.9389C329.425 23.7121 330.278 25.7836 330.626 28.1534H326.152C325.688 25.9991 324.569 24.1596 322.796 22.6349C321.04 21.0937 318.802 20.3232 316.085 20.3232C313.648 20.3232 311.494 20.986 309.621 22.3118C307.749 23.621 306.282 25.4522 305.222 27.8054C304.178 30.142 303.656 32.8516 303.656 35.9339C303.656 39.0329 304.169 41.7756 305.197 44.1619C306.224 46.5317 307.666 48.3878 309.522 49.7301C311.395 51.0724 313.582 51.7436 316.085 51.7436C317.775 51.7436 319.316 51.4287 320.708 50.799C322.117 50.1527 323.293 49.2412 324.238 48.0646C325.199 46.888 325.845 45.4877 326.177 43.8636H330.651C330.32 46.1671 329.5 48.2221 328.19 50.0284C326.898 51.8182 325.216 53.2268 323.144 54.2543C321.089 55.2817 318.736 55.7955 316.085 55.7955ZM340.184 55V16.8182H344.634V55H340.184ZM342.446 10.2557C341.535 10.2557 340.756 9.9491 340.11 9.33594C339.463 8.7062 339.14 7.95218 339.14 7.07386C339.14 6.19555 339.463 5.44981 340.11 4.83665C340.756 4.20691 341.535 3.89204 342.446 3.89204C343.358 3.89204 344.137 4.20691 344.783 4.83665C345.429 5.44981 345.752 6.19555 345.752 7.07386C345.752 7.95218 345.429 8.7062 344.783 9.33594C344.137 9.9491 343.358 10.2557 342.446 10.2557ZM367 55.87C364.696 55.87 362.592 55.4226 360.686 54.5277C358.78 53.6162 357.264 52.3071 356.137 50.6001C355.01 48.8767 354.447 46.7886 354.447 44.3359C354.447 42.4467 354.803 40.8558 355.515 39.5632C356.228 38.2706 357.239 37.21 358.548 36.3814C359.857 35.5528 361.407 34.8982 363.197 34.4176C364.986 33.937 366.958 33.5642 369.113 33.299C371.251 33.0339 373.057 32.8018 374.532 32.603C376.023 32.4041 377.158 32.0893 377.937 31.6584C378.716 31.2275 379.106 30.5315 379.106 29.5703V28.6754C379.106 26.0736 378.327 24.027 376.769 22.5355C375.228 21.0275 373.007 20.2734 370.107 20.2734C367.356 20.2734 365.111 20.8783 363.371 22.0881C361.647 23.2978 360.437 24.723 359.741 26.3636L355.54 24.8473C356.402 22.7592 357.595 21.0937 359.12 19.8509C360.644 18.5914 362.351 17.6882 364.241 17.1413C366.13 16.5779 368.044 16.2962 369.983 16.2962C371.441 16.2962 372.957 16.4867 374.532 16.8679C376.123 17.2491 377.598 17.9119 378.956 18.8565C380.315 19.7846 381.417 21.0855 382.263 22.7592C383.108 24.4164 383.53 26.5211 383.53 29.0732V55H379.106V48.9595H378.832C378.302 50.0864 377.515 51.1802 376.471 52.2408C375.427 53.3014 374.117 54.1714 372.543 54.8509C370.969 55.5303 369.121 55.87 367 55.87ZM367.596 51.8182C369.95 51.8182 371.988 51.2962 373.711 50.2521C375.435 49.2081 376.761 47.8243 377.689 46.1009C378.633 44.3608 379.106 42.4467 379.106 40.3587V34.8402C378.774 35.1551 378.219 35.4368 377.44 35.6854C376.678 35.9339 375.791 36.1577 374.78 36.3565C373.786 36.5388 372.792 36.6963 371.797 36.8288C370.803 36.9614 369.908 37.0774 369.113 37.1768C366.958 37.442 365.119 37.8563 363.594 38.4197C362.07 38.9832 360.901 39.7621 360.089 40.7564C359.277 41.7341 358.871 42.9936 358.871 44.5348C358.871 46.8549 359.7 48.6529 361.357 49.929C363.014 51.1884 365.094 51.8182 367.596 51.8182ZM399.725 4.09091V55H395.301V4.09091H399.725Z" fill="white"/>
</svg>
